<svg style="display: none;" aria-hidden="true" xmlns="http://www.w3.org/2000/svg" xmlns:xlink="http://www.w3.org/1999/xlink"><symbol viewBox="0 0 42 42" id="svg-arrow"><path d="M21 41.9996C32.5972 41.9996 42 32.5969 42 20.9996C42 9.40238 32.5973 -0.000367033 21 -0.000368047C9.40275 -0.000369061 2.84974e-06 9.40238 1.83588e-06 20.9996C8.22015e-07 32.5969 9.40275 41.9996 21 41.9996ZM23.1315 8.74963L26.25 11.8121L17.0625 20.9996L26.25 30.1871L23.1315 33.2496L10.9375 20.9996L23.1315 8.74963Z"/></symbol><symbol viewBox="0 0 46 46" id="svg-double-arrow"><path fill-rule="evenodd" clip-rule="evenodd" d="M23 -3.05176e-05C10.2979 -3.05176e-05 0 10.2978 0 23C0 35.7021 10.2979 46 23 46C35.7021 46 46 35.7021 46 23C46 10.2978 35.7021 -3.05176e-05 23 -3.05176e-05ZM13.25 23L10 19.7392L23 6.99997L36 19.7392L32.75 23L23 13.4004L13.25 23ZM13.25 35L10 31.7392L23 19L36 31.7392L32.75 35L23 25.4004L13.25 35Z"/></symbol><symbol viewBox="0 0 16 16" id="svg-lock"><path d="M6.57773 6V7.3333H9.42227V6C9.42227 5.26465 8.78438 4.6667 8 4.6667C7.21563 4.6667 6.57773 5.26465 6.57773 6Z"/><path fill-rule="evenodd" clip-rule="evenodd" d="M8 16C12.4184 16 16 12.4183 16 8C16 3.58174 12.4184 0 8 0C3.58164 0 0 3.58174 0 8C0 12.4183 3.58164 16 8 16ZM10.1332 6V7.3333H11.2V12H4.8V7.3333H5.8668V6C5.8668 4.8957 6.82188 4 8 4C9.17813 4 10.1332 4.8957 10.1332 6Z"/></symbol></svg>